<svg width="157" height="95" viewBox="0 0 157 95" fill="none" xmlns="http://www.w3.org/2000/svg">
<path d="M55.73 62.35C52.0433 62.35 48.73 61.51 45.79 59.83C42.85 58.1033 40.5167 55.77 38.79 52.83C37.11 49.89 36.27 46.5533 36.27 42.82C36.27 39.1333 37.0867 35.82 38.72 32.88C40.4 29.94 42.6633 27.63 45.51 25.95C48.3567 24.2233 51.5767 23.36 55.17 23.36C58.2967 23.36 61.12 24.0367 63.64 25.39C66.16 26.6967 68.19 28.4467 69.73 30.64V10.06C69.73 9.22 69.9867 8.56666 70.5 8.1C71.0133 7.58666 71.6667 7.33 72.46 7.33C73.2533 7.33 73.9067 7.58666 74.42 8.1C74.9333 8.56666 75.19 9.22 75.19 10.06V43.1C75.0967 46.74 74.1867 50.03 72.46 52.97C70.78 55.8633 68.47 58.15 65.53 59.83C62.6367 61.51 59.37 62.35 55.73 62.35ZM55.73 57.45C58.4367 57.45 60.84 56.82 62.94 55.56C65.0867 54.2533 66.7667 52.5033 67.98 50.31C69.24 48.1167 69.87 45.62 69.87 42.82C69.87 40.0667 69.24 37.5933 67.98 35.4C66.7667 33.16 65.0867 31.41 62.94 30.15C60.84 28.89 58.4367 28.26 55.73 28.26C53.07 28.26 50.6667 28.89 48.52 30.15C46.3733 31.41 44.67 33.16 43.41 35.4C42.15 37.5933 41.52 40.0667 41.52 42.82C41.52 45.62 42.15 48.1167 43.41 50.31C44.67 52.5033 46.3733 54.2533 48.52 55.56C50.6667 56.82 53.07 57.45 55.73 57.45ZM104.872 62.35C101.186 62.35 97.8955 61.51 95.0022 59.83C92.1555 58.1033 89.8922 55.77 88.2122 52.83C86.5789 49.89 85.7622 46.5767 85.7622 42.89C85.7622 39.1567 86.5555 35.82 88.1422 32.88C89.7289 29.94 91.8989 27.63 94.6522 25.95C97.4055 24.2233 100.579 23.36 104.172 23.36C107.019 23.36 109.632 23.92 112.012 25.04C114.439 26.16 116.562 27.84 118.382 30.08C118.896 30.64 119.082 31.2467 118.942 31.9C118.802 32.5067 118.406 33.0433 117.752 33.51C117.239 33.8833 116.656 34.0233 116.002 33.93C115.396 33.79 114.859 33.44 114.392 32.88C111.686 29.8 108.279 28.26 104.172 28.26C101.559 28.26 99.2489 28.89 97.2422 30.15C95.2822 31.41 93.7422 33.1367 92.6222 35.33C91.5489 37.5233 91.0122 40.0433 91.0122 42.89C91.0122 45.69 91.5955 48.1867 92.7622 50.38C93.9289 52.5733 95.5622 54.3 97.6622 55.56C99.7622 56.82 102.166 57.45 104.872 57.45C106.692 57.45 108.349 57.2167 109.842 56.75C111.382 56.2367 112.736 55.4667 113.902 54.44C114.462 53.9733 115.046 53.7167 115.652 53.67C116.259 53.6233 116.819 53.81 117.332 54.23C117.892 54.7433 118.196 55.3267 118.242 55.98C118.336 56.6333 118.126 57.1933 117.612 57.66C114.206 60.7867 109.959 62.35 104.872 62.35Z" fill="#FFFF"/>
<path d="M5.34 89C5.15333 89 4.98667 88.94 4.84 88.82C4.70667 88.7 4.61333 88.5467 4.56 88.36L0.46 74.5C0.366667 74.18 0.38 73.9133 0.5 73.7C0.633333 73.4867 0.84 73.38 1.12 73.38C1.28 73.38 1.42667 73.4267 1.56 73.52C1.70667 73.6 1.81333 73.7533 1.88 73.98L5.58 86.86H5.12L8.62 74.32C8.66 74.1733 8.74667 74.0533 8.88 73.96C9.02667 73.8667 9.18667 73.82 9.36 73.82C9.52 73.82 9.67333 73.8667 9.82 73.96C9.96667 74.04 10.06 74.1667 10.1 74.34L13.62 86.86H13.16L16.88 73.9C16.9733 73.5533 17.2267 73.38 17.64 73.38C17.92 73.38 18.1133 73.4933 18.22 73.72C18.3267 73.9333 18.34 74.1933 18.26 74.5L14.18 88.34C14.1133 88.5533 14.0067 88.72 13.86 88.84C13.7267 88.9467 13.5667 89 13.38 89C13.1933 89 13.0267 88.94 12.88 88.82C12.7467 88.7 12.6533 88.5467 12.6 88.36L9.12 75.66H9.6L6.14 88.34C6.07333 88.54 5.96667 88.7 5.82 88.82C5.68667 88.94 5.52667 89 5.34 89ZM23.3225 89.1C22.2425 89.1 21.2825 88.8667 20.4425 88.4C19.6158 87.92 18.9625 87.26 18.4825 86.42C18.0158 85.58 17.7825 84.62 17.7825 83.54C17.7825 82.4467 18.0025 81.4867 18.4425 80.66C18.8958 79.82 19.5158 79.16 20.3025 78.68C21.0892 78.2 21.9958 77.96 23.0225 77.96C24.0358 77.96 24.9158 78.1933 25.6625 78.66C26.4225 79.1133 27.0092 79.7467 27.4225 80.56C27.8358 81.3733 28.0425 82.3 28.0425 83.34C28.0425 83.5533 27.9758 83.7267 27.8425 83.86C27.7092 83.98 27.5358 84.04 27.3225 84.04H18.8225V82.76H27.4825L26.6225 83.38C26.6358 82.6067 26.4958 81.9133 26.2025 81.3C25.9092 80.6867 25.4892 80.2067 24.9425 79.86C24.4092 79.5133 23.7692 79.34 23.0225 79.34C22.2625 79.34 21.5958 79.52 21.0225 79.88C20.4492 80.24 20.0025 80.74 19.6825 81.38C19.3758 82.0067 19.2225 82.7267 19.2225 83.54C19.2225 84.3533 19.3958 85.0733 19.7425 85.7C20.1025 86.3267 20.5892 86.82 21.2025 87.18C21.8158 87.54 22.5225 87.72 23.3225 87.72C23.8025 87.72 24.2825 87.64 24.7625 87.48C25.2558 87.3067 25.6492 87.0933 25.9425 86.84C26.0892 86.72 26.2558 86.66 26.4425 86.66C26.6292 86.6467 26.7892 86.6933 26.9225 86.8C27.0958 86.96 27.1825 87.1333 27.1825 87.32C27.1958 87.5067 27.1225 87.6667 26.9625 87.8C26.5225 88.1733 25.9625 88.4867 25.2825 88.74C24.6025 88.98 23.9492 89.1 23.3225 89.1ZM36.1877 89.1C35.1477 89.1 34.2077 88.86 33.3677 88.38C32.541 87.9 31.881 87.2467 31.3877 86.42C30.9077 85.58 30.661 84.64 30.6477 83.6V74.16C30.6477 73.92 30.7143 73.7333 30.8477 73.6C30.9943 73.4533 31.1877 73.38 31.4277 73.38C31.6543 73.38 31.8343 73.4533 31.9677 73.6C32.1143 73.7333 32.1877 73.92 32.1877 74.16V80.04C32.6277 79.4133 33.2077 78.9133 33.9277 78.54C34.661 78.1533 35.4743 77.96 36.3677 77.96C37.3943 77.96 38.3143 78.2067 39.1277 78.7C39.941 79.18 40.581 79.84 41.0477 80.68C41.5277 81.52 41.7677 82.4667 41.7677 83.52C41.7677 84.5867 41.521 85.54 41.0277 86.38C40.5477 87.22 39.8877 87.8867 39.0477 88.38C38.2077 88.86 37.2543 89.1 36.1877 89.1ZM36.1877 87.7C36.961 87.7 37.6543 87.52 38.2677 87.16C38.881 86.7867 39.361 86.2867 39.7077 85.66C40.0677 85.0333 40.2477 84.32 40.2477 83.52C40.2477 82.7333 40.0677 82.0267 39.7077 81.4C39.361 80.76 38.881 80.26 38.2677 79.9C37.6543 79.54 36.961 79.36 36.1877 79.36C35.4277 79.36 34.741 79.54 34.1277 79.9C33.5143 80.26 33.0343 80.76 32.6877 81.4C32.341 82.0267 32.1677 82.7333 32.1677 83.52C32.1677 84.32 32.341 85.0333 32.6877 85.66C33.0343 86.2867 33.5143 86.7867 34.1277 87.16C34.741 87.52 35.4277 87.7 36.1877 87.7ZM51.6277 89C51.401 89 51.2143 88.9267 51.0677 88.78C50.921 88.6333 50.8477 88.4467 50.8477 88.22V74.16C50.8477 73.9333 50.921 73.7467 51.0677 73.6C51.2143 73.4533 51.401 73.38 51.6277 73.38H55.2277C56.3743 73.38 57.421 73.5733 58.3677 73.96C59.3277 74.3333 60.1543 74.8733 60.8477 75.58C61.541 76.2733 62.0743 77.0933 62.4477 78.04C62.8343 78.9867 63.0277 80.0333 63.0277 81.18C63.0277 82.3267 62.8343 83.38 62.4477 84.34C62.0743 85.2867 61.541 86.1133 60.8477 86.82C60.1543 87.5133 59.3277 88.0533 58.3677 88.44C57.421 88.8133 56.3743 89 55.2277 89H51.6277ZM52.4077 87.6H55.2277C56.4543 87.6 57.5343 87.3267 58.4677 86.78C59.4143 86.22 60.1543 85.46 60.6877 84.5C61.221 83.5267 61.4877 82.42 61.4877 81.18C61.4877 79.94 61.221 78.84 60.6877 77.88C60.1543 76.9067 59.4143 76.1467 58.4677 75.6C57.5343 75.0533 56.4543 74.78 55.2277 74.78H52.4077V87.6ZM70.9983 89.1C69.9183 89.1 68.9583 88.8667 68.1183 88.4C67.2916 87.92 66.6383 87.26 66.1583 86.42C65.6916 85.58 65.4583 84.62 65.4583 83.54C65.4583 82.4467 65.6783 81.4867 66.1183 80.66C66.5716 79.82 67.1916 79.16 67.9783 78.68C68.7649 78.2 69.6716 77.96 70.6983 77.96C71.7116 77.96 72.5916 78.1933 73.3383 78.66C74.0983 79.1133 74.6849 79.7467 75.0983 80.56C75.5116 81.3733 75.7183 82.3 75.7183 83.34C75.7183 83.5533 75.6516 83.7267 75.5183 83.86C75.3849 83.98 75.2116 84.04 74.9983 84.04H66.4983V82.76H75.1583L74.2983 83.38C74.3116 82.6067 74.1716 81.9133 73.8783 81.3C73.5849 80.6867 73.1649 80.2067 72.6183 79.86C72.0849 79.5133 71.4449 79.34 70.6983 79.34C69.9383 79.34 69.2716 79.52 68.6983 79.88C68.1249 80.24 67.6783 80.74 67.3583 81.38C67.0516 82.0067 66.8983 82.7267 66.8983 83.54C66.8983 84.3533 67.0716 85.0733 67.4183 85.7C67.7783 86.3267 68.2649 86.82 68.8783 87.18C69.4916 87.54 70.1983 87.72 70.9983 87.72C71.4783 87.72 71.9583 87.64 72.4383 87.48C72.9316 87.3067 73.3249 87.0933 73.6183 86.84C73.7649 86.72 73.9316 86.66 74.1183 86.66C74.3049 86.6467 74.4649 86.6933 74.5983 86.8C74.7716 86.96 74.8583 87.1333 74.8583 87.32C74.8716 87.5067 74.7983 87.6667 74.6383 87.8C74.1983 88.1733 73.6383 88.4867 72.9583 88.74C72.2783 88.98 71.6249 89.1 70.9983 89.1ZM81.6728 89C81.3528 89 81.1128 88.8267 80.9528 88.48L76.5128 79.06C76.4328 78.8867 76.4261 78.7133 76.4928 78.54C76.5595 78.3667 76.6928 78.2333 76.8928 78.14C77.0795 78.0467 77.2595 78.0333 77.4328 78.1C77.6061 78.1667 77.7395 78.2867 77.8328 78.46L82.0928 87.68H81.2728L85.4728 78.46C85.5528 78.2733 85.6861 78.1533 85.8728 78.1C86.0728 78.0333 86.2661 78.04 86.4528 78.12C86.6395 78.2133 86.7661 78.3533 86.8328 78.54C86.8995 78.7133 86.8928 78.88 86.8128 79.04L82.4328 88.48C82.2728 88.8267 82.0195 89 81.6728 89ZM93.5569 89.1C92.4769 89.1 91.5169 88.8667 90.6769 88.4C89.8502 87.92 89.1969 87.26 88.7169 86.42C88.2502 85.58 88.0169 84.62 88.0169 83.54C88.0169 82.4467 88.2369 81.4867 88.6769 80.66C89.1302 79.82 89.7502 79.16 90.5369 78.68C91.3235 78.2 92.2302 77.96 93.2569 77.96C94.2702 77.96 95.1502 78.1933 95.8969 78.66C96.6569 79.1133 97.2435 79.7467 97.6569 80.56C98.0702 81.3733 98.2769 82.3 98.2769 83.34C98.2769 83.5533 98.2102 83.7267 98.0769 83.86C97.9435 83.98 97.7702 84.04 97.5569 84.04H89.0569V82.76H97.7169L96.8569 83.38C96.8702 82.6067 96.7302 81.9133 96.4369 81.3C96.1435 80.6867 95.7235 80.2067 95.1769 79.86C94.6435 79.5133 94.0035 79.34 93.2569 79.34C92.4969 79.34 91.8302 79.52 91.2569 79.88C90.6835 80.24 90.2369 80.74 89.9169 81.38C89.6102 82.0067 89.4569 82.7267 89.4569 83.54C89.4569 84.3533 89.6302 85.0733 89.9769 85.7C90.3369 86.3267 90.8235 86.82 91.4369 87.18C92.0502 87.54 92.7569 87.72 93.5569 87.72C94.0369 87.72 94.5169 87.64 94.9969 87.48C95.4902 87.3067 95.8835 87.0933 96.1769 86.84C96.3235 86.72 96.4902 86.66 96.6769 86.66C96.8635 86.6467 97.0235 86.6933 97.1569 86.8C97.3302 86.96 97.4169 87.1333 97.4169 87.32C97.4302 87.5067 97.3569 87.6667 97.1969 87.8C96.7569 88.1733 96.1969 88.4867 95.5169 88.74C94.8369 88.98 94.1835 89.1 93.5569 89.1ZM103.242 89C102.709 89 102.229 88.8533 101.802 88.56C101.389 88.2667 101.062 87.86 100.822 87.34C100.595 86.82 100.482 86.22 100.482 85.54V74.14C100.482 73.9133 100.549 73.7333 100.682 73.6C100.829 73.4533 101.015 73.38 101.242 73.38C101.469 73.38 101.649 73.4533 101.782 73.6C101.929 73.7333 102.002 73.9133 102.002 74.14V85.54C102.002 86.1133 102.115 86.58 102.342 86.94C102.582 87.3 102.882 87.48 103.242 87.48H103.742C103.942 87.48 104.102 87.5533 104.222 87.7C104.342 87.8333 104.402 88.0133 104.402 88.24C104.402 88.4667 104.315 88.6533 104.142 88.8C103.982 88.9333 103.769 89 103.502 89H103.242ZM110.901 89.1C109.834 89.1 108.881 88.86 108.041 88.38C107.201 87.9 106.541 87.24 106.061 86.4C105.581 85.56 105.341 84.6067 105.341 83.54C105.341 82.46 105.581 81.5 106.061 80.66C106.541 79.82 107.201 79.16 108.041 78.68C108.881 78.2 109.834 77.96 110.901 77.96C111.968 77.96 112.914 78.2 113.741 78.68C114.581 79.16 115.241 79.82 115.721 80.66C116.201 81.5 116.448 82.46 116.461 83.54C116.461 84.6067 116.214 85.56 115.721 86.4C115.241 87.24 114.581 87.9 113.741 88.38C112.914 88.86 111.968 89.1 110.901 89.1ZM110.901 87.7C111.674 87.7 112.368 87.52 112.981 87.16C113.594 86.8 114.074 86.3067 114.421 85.68C114.768 85.0533 114.941 84.34 114.941 83.54C114.941 82.74 114.768 82.0267 114.421 81.4C114.074 80.76 113.594 80.26 112.981 79.9C112.368 79.54 111.674 79.36 110.901 79.36C110.128 79.36 109.434 79.54 108.821 79.9C108.208 80.26 107.721 80.76 107.361 81.4C107.014 82.0267 106.841 82.74 106.841 83.54C106.841 84.34 107.014 85.0533 107.361 85.68C107.721 86.3067 108.208 86.8 108.821 87.16C109.434 87.52 110.128 87.7 110.901 87.7ZM120.236 93.68C119.996 93.68 119.803 93.6067 119.656 93.46C119.523 93.3267 119.456 93.14 119.456 92.9V83.46C119.47 82.42 119.716 81.4867 120.196 80.66C120.69 79.82 121.35 79.16 122.176 78.68C123.016 78.2 123.956 77.96 124.996 77.96C126.063 77.96 127.016 78.2067 127.856 78.7C128.696 79.18 129.356 79.84 129.836 80.68C130.33 81.52 130.576 82.4733 130.576 83.54C130.576 84.5933 130.336 85.54 129.856 86.38C129.39 87.22 128.75 87.8867 127.936 88.38C127.123 88.86 126.203 89.1 125.176 89.1C124.283 89.1 123.47 88.9133 122.736 88.54C122.016 88.1533 121.436 87.6467 120.996 87.02V92.9C120.996 93.14 120.923 93.3267 120.776 93.46C120.643 93.6067 120.463 93.68 120.236 93.68ZM124.996 87.7C125.77 87.7 126.463 87.52 127.076 87.16C127.69 86.8 128.17 86.3067 128.516 85.68C128.876 85.04 129.056 84.3267 129.056 83.54C129.056 82.74 128.876 82.0267 128.516 81.4C128.17 80.7733 127.69 80.28 127.076 79.92C126.463 79.5467 125.77 79.36 124.996 79.36C124.236 79.36 123.55 79.5467 122.936 79.92C122.323 80.28 121.843 80.7733 121.496 81.4C121.15 82.0267 120.976 82.74 120.976 83.54C120.976 84.3267 121.15 85.04 121.496 85.68C121.843 86.3067 122.323 86.8 122.936 87.16C123.55 87.52 124.236 87.7 124.996 87.7ZM138.557 89.1C137.477 89.1 136.517 88.8667 135.677 88.4C134.85 87.92 134.197 87.26 133.717 86.42C133.25 85.58 133.017 84.62 133.017 83.54C133.017 82.4467 133.237 81.4867 133.677 80.66C134.13 79.82 134.75 79.16 135.537 78.68C136.324 78.2 137.23 77.96 138.257 77.96C139.27 77.96 140.15 78.1933 140.897 78.66C141.657 79.1133 142.244 79.7467 142.657 80.56C143.07 81.3733 143.277 82.3 143.277 83.34C143.277 83.5533 143.21 83.7267 143.077 83.86C142.944 83.98 142.77 84.04 142.557 84.04H134.057V82.76H142.717L141.857 83.38C141.87 82.6067 141.73 81.9133 141.437 81.3C141.144 80.6867 140.724 80.2067 140.177 79.86C139.644 79.5133 139.004 79.34 138.257 79.34C137.497 79.34 136.83 79.52 136.257 79.88C135.684 80.24 135.237 80.74 134.917 81.38C134.61 82.0067 134.457 82.7267 134.457 83.54C134.457 84.3533 134.63 85.0733 134.977 85.7C135.337 86.3267 135.824 86.82 136.437 87.18C137.05 87.54 137.757 87.72 138.557 87.72C139.037 87.72 139.517 87.64 139.997 87.48C140.49 87.3067 140.884 87.0933 141.177 86.84C141.324 86.72 141.49 86.66 141.677 86.66C141.864 86.6467 142.024 86.6933 142.157 86.8C142.33 86.96 142.417 87.1333 142.417 87.32C142.43 87.5067 142.357 87.6667 142.197 87.8C141.757 88.1733 141.197 88.4867 140.517 88.74C139.837 88.98 139.184 89.1 138.557 89.1ZM146.522 82.26C146.562 81.4333 146.775 80.6933 147.162 80.04C147.562 79.3867 148.075 78.8733 148.702 78.5C149.342 78.1267 150.049 77.94 150.822 77.94C151.435 77.94 151.909 78.0267 152.242 78.2C152.575 78.3733 152.702 78.6267 152.622 78.96C152.569 79.16 152.475 79.2933 152.342 79.36C152.222 79.4267 152.069 79.4533 151.882 79.44C151.709 79.4267 151.509 79.4133 151.282 79.4C150.535 79.3333 149.869 79.4133 149.282 79.64C148.709 79.8533 148.249 80.1867 147.902 80.64C147.569 81.0933 147.402 81.6333 147.402 82.26H146.522ZM146.642 89C146.402 89 146.215 88.9333 146.082 88.8C145.949 88.6667 145.882 88.48 145.882 88.24V78.82C145.882 78.58 145.949 78.3933 146.082 78.26C146.215 78.1267 146.402 78.06 146.642 78.06C146.882 78.06 147.069 78.1267 147.202 78.26C147.335 78.3933 147.402 78.58 147.402 78.82V88.24C147.402 88.48 147.335 88.6667 147.202 88.8C147.069 88.9333 146.882 89 146.642 89Z" fill="#FFFF"/>
</svg>
